<?xml version="1.0" encoding="UTF-8"?>
<svg xmlns:xlink="http://www.w3.org/1999/xlink" width="73" height="59" viewBox="0 0 73 59" fill="none" xmlns="http://www.w3.org/2000/svg">
  <path fill-rule="evenodd" clip-rule="evenodd" d="M0.00488281 36.182H12.0659V-0.000976562H0.00488281V36.182Z" fill="black"></path>
  <path fill-rule="evenodd" clip-rule="evenodd" d="M24.127 36.1831H48.249V24.1221H24.127V36.1831Z" fill="black"></path>
  <path fill-rule="evenodd" clip-rule="evenodd" d="M24.126 12.061H48.248V0H24.126V12.061Z" fill="black"></path>
  <path fill-rule="evenodd" clip-rule="evenodd" d="M60.3091 36.182H72.3701V-0.000976562H60.3091V36.182Z" fill="black"></path>
  <path fill-rule="evenodd" clip-rule="evenodd" d="M8.99649 42.2256V48.5096H3.11949V42.2256H0.000488281V58.0486H3.11949V51.4926H8.99649V58.0486H12.0935V42.2256H8.99649Z" fill="black"></path>
  <path fill-rule="evenodd" clip-rule="evenodd" d="M27.246 55.0636H33.914V58.0476H24.127V42.2246H33.801V45.2086H27.246V48.5766H33.236V51.5146H27.246V55.0636Z" fill="black"></path>
  <path fill-rule="evenodd" clip-rule="evenodd" d="M54.2761 42.2246H57.3951V58.0476H55.0221L48.2401 48.3726V58.0476H45.1211V42.2246H47.4951L54.2761 51.8766V42.2246Z" fill="black"></path>
  <path fill-rule="evenodd" clip-rule="evenodd" d="M69.29 58.0476H72.409V42.2246H69.29V58.0476Z" fill="black"></path>
</svg>